# xmcd
#
# Track frame offsets: 
#        183
#        18478
#        33825
#        48708
#        62593
#        72718
#        90358
#        115670
#        134300
#        158018
#        186538
#
# Disc length: 2702 seconds
#
# Revision: 6
# Processed by: cddbd v1.5.1PL2 Copyright (c) Steve Scherf et al.
# Submitted via: ExactAudioCopy v0.90b4
#
DISCID=940a8c0b
DTITLE=Bach - Drei Cello Sonaten
DYEAR=1985
DGENRE=
TTITLE0=Nr. 1 in G-dur, BWV 1027  (I - adagio)
TTITLE1=Nr. 1 in G-dur, BWV 1027  (II - allegro ma non tanto)
TTITLE2=Nr. 1 in G-dur, BWV 1027  (III - andante)
TTITLE3=Nr. 1 in G-dur, BWV 1027  (IV - allegro moderato)
TTITLE4=Nr. 2 in D-dur, BWV 1028  (I - adagio)
TTITLE5=Nr. 2 in D-dur, BWV 1028  (II - allegro)
TTITLE6=Nr. 2 in D-dur, BWV 1028  (III - andante)
TTITLE7=Nr. 2 in D-dur, BWV 1028  (IV - allegro)
TTITLE8=Nr. 3 in g-moll, BWV 1029  (I - vivace)
TTITLE9=Nr. 3 in g-moll, BWV 1029  (II - adagio)
TTITLE10=Nr. 3 in g-moll, BWV 1029  (III - allegro)
EXTD=mophon\n415 471-2\n Maisky, violincello\nMartha Argerich, piano\n
EXTD=\nDeutsche GramJ.S. Bach\nDrei Sonaten fur Violoncello und Klavie
EXTD=r\n\nMischa
EXTT0=
EXTT1=
EXTT2=
EXTT3=
EXTT4=
EXTT5=
EXTT6=
EXTT7=
EXTT8=
EXTT9=
EXTT10=
PLAYORDER=
